<svg width="173" height="48" viewBox="0 0 173 48" fill="none" xmlns="http://www.w3.org/2000/svg">
<path fill-rule="evenodd" clip-rule="evenodd" d="M10.3928 0.0713694C7.8528 0.201208 5.74167 0.729432 4.22693 1.61405C2.37621 2.69491 1.08921 4.66268 0.451774 7.38611C0.0309809 9.18404 0.0519797 8.15731 0.0249177 28.2557L0 46.7222H5.06704H10.134L10.1355 29.8084C10.1364 18.851 10.1631 12.7132 10.2114 12.3794C10.3993 11.0793 11.1652 10.2541 12.1968 10.2406C12.9893 10.2301 13.6457 10.6642 14.1433 11.5279C14.4294 12.0243 14.6819 12.8773 18.8604 27.4608C20.981 34.8622 22.8012 41.1342 22.9052 41.3985C23.3941 42.6412 23.9198 43.4357 24.9174 44.4396C26.2835 45.8142 28.0838 46.7928 30.3936 47.4163C32.7025 48.0395 36.0433 48.1834 38.1943 47.7523C40.2703 47.3362 41.8606 46.5172 43.1482 45.2011C44.9426 43.367 45.9295 41.0231 46.2125 37.9234C46.2642 37.3574 46.2903 31.058 46.2905 19.0871L46.2907 1.10121H41.0779H35.8651V18.9529C35.8651 31.3862 35.8413 36.8678 35.7865 37.0128C35.6798 37.2952 35.3607 37.6244 35.0749 37.7466C34.9453 37.8022 34.6085 37.8689 34.3265 37.8952C33.8584 37.9387 33.781 37.9251 33.4398 37.7393C33.0614 37.5334 32.7268 37.1823 32.523 36.7773C32.1167 35.9696 30.7898 31.542 27.8807 21.2868C26.0868 14.9631 24.5014 9.42316 24.3576 8.97582C24.0151 7.91079 23.1978 6.2691 22.5735 5.39246C20.7353 2.81107 17.634 0.873469 14.3486 0.253629C13.8407 0.157803 11.6829 -0.0331826 11.5389 0.00497049C11.5185 0.0102942 11.0028 0.0402407 10.3928 0.0713694ZM66.6242 0.255701C63.33 0.720784 60.3003 2.37504 58.6043 4.63495C58.1351 5.26004 57.4582 6.47702 57.1669 7.21893C56.8743 7.9641 44.8776 46.6647 44.9247 46.7117C44.9596 46.7466 55.7405 46.8726 55.8024 46.8388C55.8081 46.8357 58.3134 39.014 61.3697 29.4572C64.426 19.9005 66.9833 11.9482 67.0526 11.7855C67.1219 11.6229 67.3167 11.3508 67.4855 11.1811C68.1427 10.5198 69.1646 10.5785 69.7468 11.3111C69.9154 11.5232 71.0054 14.8218 75.2071 27.8367C78.0944 36.7801 80.657 44.7213 80.9018 45.4837L81.347 46.8701H98.3012C109.259 46.8701 115.592 46.8432 116.209 46.794C119.41 46.5385 122.009 45.0977 124.167 42.3828C126.345 39.6416 127.491 36.3281 127.501 32.7476C127.505 31.3449 127.397 30.6554 126.989 29.4826C126.516 28.1241 125.79 26.8809 124.729 25.6123C122.471 22.9141 118.884 20.5866 115.531 19.6442C114.946 19.4798 114.914 19.479 107.624 19.44L100.304 19.4009L99.8793 19.2296C98.885 18.8288 98.1035 17.969 97.6881 16.8192C97.4273 16.0974 97.4185 14.7463 97.6688 13.8592C98.1179 12.2676 99.2038 11.09 100.497 10.7918C100.709 10.7431 105.111 10.7164 113.151 10.7152L125.48 10.7134V5.87034V1.02726L112.633 1.02749C104.252 1.02771 99.4908 1.05477 98.936 1.10542C97.0224 1.28014 95.3865 1.72652 93.7972 2.50777C90.1451 4.30281 87.8829 7.68084 87.2871 12.2292C87.1279 13.4454 87.129 15.7229 87.2896 16.9613C87.8077 20.9577 89.742 24.445 92.7151 26.7427C94.1982 27.889 95.7601 28.5764 97.5312 28.8625C98.1313 28.9595 99.4021 28.9762 106.256 28.9769C111.5 28.9774 114.444 29.0046 114.757 29.0554C115.379 29.1563 115.876 29.4329 116.31 29.9202C117.024 30.7214 117.31 31.5982 117.256 32.8206C117.184 34.4657 116.348 35.8997 115.063 36.583C114.16 37.0628 115.014 37.0343 101.561 37.0346L89.2868 37.0349L89.1162 36.7212C89.0224 36.5487 86.9307 29.9361 84.4679 22.0266C79.6512 6.55613 79.8278 7.07453 78.8185 5.44703C77.118 2.70534 74.7754 1.05913 71.6234 0.390714C70.8499 0.226641 70.5013 0.196994 69.0642 0.173407C67.862 0.153665 67.1853 0.176437 66.6242 0.255701ZM147.626 0.191964C146.197 0.323208 144.475 0.811214 143.115 1.47083C140.581 2.69994 138.884 4.42481 137.841 6.832C137.49 7.64165 125.364 46.63 125.439 46.7056C125.503 46.7693 136.216 46.8646 136.289 46.8022C136.317 46.7786 138.789 39.1064 141.782 29.753C144.776 20.3996 147.308 12.4934 147.409 12.1839C147.797 11.0006 148.717 10.4416 149.642 10.8279C150.271 11.0909 150.388 11.3086 151.104 13.5503C151.405 14.491 153.945 22.3645 156.748 31.0469L161.846 46.8331L167.028 46.8521C171.419 46.8682 172.211 46.8554 172.211 46.7681C172.211 46.7114 169.565 37.8547 166.332 27.0866C160.56 7.86391 160.445 7.49258 160.004 6.65226C157.982 2.79451 155.28 0.811288 151.29 0.254667C150.535 0.149376 148.474 0.114105 147.626 0.191964Z" fill="black"/>
</svg>
